<svg xmlns="http://www.w3.org/2000/svg" viewBox="0 0 1440 1080" role="img" aria-labelledby="title desc">
  <title id="title">3. Transferência da suspensão</title>
  <desc id="desc">Infográfico da suspensão sendo vertida em porções para o centro do papel já molhado.</desc>
  <defs>
    <linearGradient id="glass" x1="0" y1="0" x2="1" y2="1">
      <stop offset="0" stop-color="#ffffff" stop-opacity=".92"/>
      <stop offset=".45" stop-color="#dff4fb" stop-opacity=".55"/>
      <stop offset="1" stop-color="#a8dce9" stop-opacity=".42"/>
    </linearGradient>
    <linearGradient id="steel" x1="0" y1="0" x2="1" y2="0">
      <stop offset="0" stop-color="#5d6867"/><stop offset=".3" stop-color="#e8eeee"/><stop offset=".55" stop-color="#7c8987"/><stop offset="1" stop-color="#d9e1df"/>
    </linearGradient>
    <linearGradient id="porcelain" x1="0" y1="0" x2="0" y2="1">
      <stop offset="0" stop-color="#ffffff"/><stop offset="1" stop-color="#e9efec"/>
    </linearGradient>
    <linearGradient id="amberLiquid" x1="0" y1="0" x2="0" y2="1">
      <stop offset="0" stop-color="#ffd65a"/><stop offset="1" stop-color="#e99713"/>
    </linearGradient>
    <filter id="shadow" x="-20%" y="-20%" width="140%" height="150%"><feDropShadow dx="0" dy="8" stdDeviation="8" flood-color="#18352f" flood-opacity=".13"/></filter>
    <marker id="arrowBlue" viewBox="0 0 10 10" refX="8" refY="5" markerWidth="8" markerHeight="8" orient="auto-start-reverse"><path d="M0 0 10 5 0 10Z" fill="#176fc2"/></marker>
    <marker id="arrowGreen" viewBox="0 0 10 10" refX="8" refY="5" markerWidth="8" markerHeight="8" orient="auto-start-reverse"><path d="M0 0 10 5 0 10Z" fill="#249447"/></marker>
    <marker id="arrowOrange" viewBox="0 0 10 10" refX="8" refY="5" markerWidth="8" markerHeight="8" orient="auto-start-reverse"><path d="M0 0 10 5 0 10Z" fill="#ef8a00"/></marker>
    <style><![CDATA[
      text{font-family:Arial,"Segoe UI",sans-serif;fill:#142b27}
      .heading{font-size:48px;font-weight:800;fill:#fff;letter-spacing:-1px}
      .subheading{font-size:23px;font-weight:700;fill:#d8e8f5}
      .label{font-size:26px;font-weight:800;fill:#101817}
      .body{font-size:30px;font-weight:650}
      .cardText{font-weight:700;fill:#142b27}
      .number{font-size:35px;font-weight:900;fill:#fff}
      .small{font-size:23px;font-weight:700;fill:#526861}
      .tiny{font-size:19px;font-weight:750;fill:#526861}
      .glass{fill:url(#glass);stroke:#2774b8;stroke-width:4;stroke-linejoin:round}
      .glassThin{fill:none;stroke:#5aa6d3;stroke-width:4;stroke-linecap:round}
      .porcelain{fill:url(#porcelain);stroke:#617b78;stroke-width:4}
      .hose{fill:none;stroke:#26312f;stroke-width:24;stroke-linecap:round;stroke-linejoin:round}
      .leader{fill:none;stroke:#101817;stroke-width:3}
    ]]></style>
  </defs>
  <rect width="1440" height="1080" fill="#fbfdfc"/>
  <rect x="22" y="20" width="930" height="112" rx="18" fill="#071f3a" filter="url(#shadow)"/>
  <text x="54" y="91" class="heading">3. Transferência da suspensão</text>
  <text x="985" y="58" class="subheading" fill="#071f3a">FILTRAÇÃO</text>
  <text x="985" y="88" class="subheading" fill="#071f3a">POR SUCÇÃO</text>
  <g filter="url(#shadow)">
    <rect x="35" y="190" width="480" height="170" rx="18" fill="#fff7e8" stroke="#ef8a00" stroke-width="3"/>
    <circle cx="87" cy="243" r="32" fill="#ef8a00"/>
    <circle cx="87" cy="243" r="27" fill="none" stroke="#fff" stroke-opacity=".35" stroke-width="2"/>
    <text x="87" y="254" class="number" text-anchor="middle">1</text>
    <text x="139" y="239" class="cardText" font-size="28" text-anchor="start"><tspan x="139" dy="0">Homogeneíze a suspensão</tspan><tspan x="139" dy="37">antes de verter.</tspan></text>
  </g>
  <g filter="url(#shadow)">
    <rect x="35" y="390" width="480" height="190" rx="18" fill="#edf6ff" stroke="#176fc2" stroke-width="3"/>
    <circle cx="87" cy="443" r="32" fill="#176fc2"/>
    <circle cx="87" cy="443" r="27" fill="none" stroke="#fff" stroke-opacity=".35" stroke-width="2"/>
    <text x="87" y="454" class="number" text-anchor="middle">2</text>
    <text x="139" y="439" class="cardText" font-size="28" text-anchor="start"><tspan x="139" dy="0">Transfira em porções</tspan><tspan x="139" dy="37">e direcione o sólido</tspan><tspan x="139" dy="37">para o centro.</tspan></text>
  </g>
  <g filter="url(#shadow)">
    <rect x="35" y="610" width="480" height="190" rx="18" fill="#eef9f0" stroke="#249447" stroke-width="3"/>
    <circle cx="87" cy="663" r="32" fill="#249447"/>
    <circle cx="87" cy="663" r="27" fill="none" stroke="#fff" stroke-opacity=".35" stroke-width="2"/>
    <text x="87" y="674" class="number" text-anchor="middle">3</text>
    <text x="139" y="659" class="cardText" font-size="27" text-anchor="start"><tspan x="139" dy="0">Use pouco solvente frio</tspan><tspan x="139" dy="36">para recuperar o material</tspan><tspan x="139" dy="36">que ficou no frasco.</tspan></text>
  </g>
  <g>
    <ellipse cx="920" cy="968" rx="330" ry="30" fill="#193e35" opacity=".08"/>
    <g>
      <path d="M650 510 Q650 475 690 475 H1050 Q1090 475 1090 510 V745 Q1090 785 1050 785 H690 Q650 785 650 745 Z" class="porcelain"/>
      <ellipse cx="870" cy="510" rx="220" ry="54" fill="#fff" stroke="#617b78" stroke-width="5"/>
      <ellipse cx="870" cy="635" rx="185" ry="42" fill="#dcebf0" stroke="#176fc2" stroke-width="4"/>
      <circle cx="760" cy="625" r="8" fill="#344a46" opacity=".75"/><circle cx="815" cy="615" r="8" fill="#344a46" opacity=".75"/><circle cx="870" cy="610" r="8" fill="#344a46" opacity=".75"/><circle cx="925" cy="615" r="8" fill="#344a46" opacity=".75"/><circle cx="980" cy="625" r="8" fill="#344a46" opacity=".75"/><circle cx="790" cy="650" r="8" fill="#344a46" opacity=".75"/><circle cx="845" cy="645" r="8" fill="#344a46" opacity=".75"/><circle cx="900" cy="645" r="8" fill="#344a46" opacity=".75"/><circle cx="955" cy="650" r="8" fill="#344a46" opacity=".75"/>
      <ellipse cx="870" cy="627" rx="174" ry="34" fill="#dcecf1" stroke="#778c87" stroke-width="3"/>
      <ellipse cx="870" cy="611" rx="92" ry="28" fill="#ead9a5" stroke="#c69635" stroke-width="3"/><circle cx="835" cy="605" r="9" fill="#fff3c8"/><circle cx="890" cy="617" r="8" fill="#fff3c8"/>
      <path d="M810 785 H930 L950 900 H790 Z" class="porcelain"/>
      <path d="M790 900 L950 900 L980 960 H760 Z" class="glass"/>
    </g>
    <g transform="rotate(25 890 285)">
      <path d="M745 180 H900 V310 L960 400 Q975 445 930 465 H710 Q665 445 680 400 L740 310 Z" class="glass"/>
      <path d="M700 392 Q820 350 945 402 L930 447 H708 Z" fill="url(#amberLiquid)" opacity=".82"/>
      <path d="M900 240 H1040" class="glassThin" stroke-width="30"/>
    </g>
    <path d="M1012 360 C1000 430 955 500 900 573" fill="none" stroke="#d79b38" stroke-width="24" stroke-linecap="round" marker-end="url(#arrowOrange)"/>
    <circle cx="966" cy="456" r="9" fill="#fff2bd"/><circle cx="946" cy="490" r="8" fill="#fff2bd"/><circle cx="928" cy="522" r="10" fill="#fff2bd"/>
    <path d="M870 675 V830" fill="none" stroke="#176fc2" stroke-width="8" stroke-dasharray="14 10" marker-end="url(#arrowBlue)"/>
    <g transform="translate(1125 535)">
      <circle cx="0" cy="0" r="72" fill="#fff" stroke="#176fc2" stroke-width="4" filter="url(#shadow)"/>
      <circle cx="0" cy="0" r="52" fill="#fdfcf4" stroke="#778c87" stroke-width="3"/>
      <path d="M-38 13 Q0 42 38 13" fill="none" stroke="#7c8f8a" stroke-width="5"/>
      <text x="0" y="104" class="tiny" text-anchor="middle">concavidade para baixo</text>
    </g>
  </g>
  <rect x="92" y="858" width="1240" height="142" rx="22" fill="#eef9f0" stroke="#249447" stroke-width="4" filter="url(#shadow)"/>
  <circle cx="158" cy="929" r="43" fill="#249447"/><path d="M136 929 l15 16 32-36" fill="none" stroke="#fff" stroke-width="10" stroke-linecap="round" stroke-linejoin="round"/>
  <text x="225" y="910" class="body" text-anchor="start"><tspan x="225" dy="0">O papel já está molhado e assentado. Evite excesso de solvente:</tspan><tspan x="225" dy="41">ele pode dissolver cristais e reduzir o rendimento.</tspan></text>
  </svg>
